<!DOCTYPE svg PUBLIC "-//W3C//DTD SVG 1.1//EN" "http://www.w3.org/Graphics/SVG/1.1/DTD/svg11.dtd">
<!-- Uploaded to: SVG Repo, www.svgrepo.com, Transformed by: SVG Repo Mixer Tools -->
<svg height="100px" width="100px" version="1.1" id="Layer_1" xmlns="http://www.w3.org/2000/svg" xmlns:xlink="http://www.w3.org/1999/xlink" viewBox="0 0 512 512" xml:space="preserve" fill="#000000">
<g id="SVGRepo_bgCarrier" stroke-width="0"/>
<g id="SVGRepo_tracerCarrier" stroke-linecap="round" stroke-linejoin="round"/>
<g id="SVGRepo_iconCarrier"> <path style="fill:#9AE1D3;" d="M492.125,406.704c-9.781-36.508-42.982-62.005-80.737-62.005c-7.293,0-14.591,0.964-21.691,2.867 c-23.402,6.27-41.821,21.938-52.311,41.851l-32.395-120.903l-33.193-123.875c-0.13-0.488-0.295-0.967-0.49-1.433L203.203,0.001 c-4.662,0.21-21.509,49.572,8.292,160.796l26.697,99.633c0.994,3.708,3.828,6.643,7.499,7.767l39.384,12.045l45.485,169.753 C340.343,486.503,373.543,512,411.297,512c7.293,0,14.591-0.964,21.691-2.867C477.531,497.196,504.06,451.247,492.125,406.704z M427.225,487.62c-5.223,1.399-10.581,2.109-15.928,2.109c-27.692,0-52.045-18.709-59.224-45.495 c-8.755-32.687,10.708-66.397,43.387-75.154c5.223-1.399,10.582-2.109,15.928-2.109c27.693,0,52.047,18.709,59.225,45.497 C479.37,445.15,459.906,478.863,427.225,487.62z"/> <path style="fill:#83C7C3;" d="M317.323,33.93l-76.635,109.273c-0.189,0.468-0.356,0.947-0.49,1.436l-33.195,123.872 c0,0.045-32.393,120.909-32.393,120.909c-10.49-19.91-28.908-35.578-52.304-41.858c-7.104-1.893-14.398-2.862-21.692-2.862 c-37.761,0-70.956,25.5-80.744,62.003C7.945,451.245,34.47,497.201,79.012,509.127C86.117,511.031,93.41,512,100.704,512 c18.875,0,36.614-6.37,50.856-17.316c14.242-10.935,24.988-26.436,29.877-44.687c0.011-0.033,45.489-169.761,45.489-169.761 l39.386-12.038c3.664-1.125,6.503-4.064,7.494-7.773l26.692-99.629C316.355,101.656,319.005,59.998,317.323,33.93z M159.934,444.185 c-7.194,26.837-31.547,45.544-59.23,45.544c-5.345,0-10.712-0.713-15.924-2.105c-32.683-8.764-52.148-42.471-43.395-75.154 c7.182-26.792,31.536-45.5,59.23-45.5c5.345,0,10.701,0.713,15.924,2.105C149.21,377.828,168.664,411.524,159.934,444.185z"/> <path style="fill:#6BADB4;" d="M317.323,33.93l-51.975,109.274l-24.66-0.001L308.794,0C310.976,0.1,315.831,10.968,317.323,33.93z"/> </g>
</svg>