<!DOCTYPE svg PUBLIC "-//W3C//DTD SVG 1.1//EN" "http://www.w3.org/Graphics/SVG/1.1/DTD/svg11.dtd">
<!-- Uploaded to: SVG Repo, www.svgrepo.com, Transformed by: SVG Repo Mixer Tools -->
<svg height="100px" width="100px" version="1.1" id="Layer_1" xmlns="http://www.w3.org/2000/svg" xmlns:xlink="http://www.w3.org/1999/xlink" viewBox="0 0 512 512" xml:space="preserve" fill="#000000">
<g id="SVGRepo_bgCarrier" stroke-width="0"/>
<g id="SVGRepo_tracerCarrier" stroke-linecap="round" stroke-linejoin="round"/>
<g id="SVGRepo_iconCarrier"> <g> <path style="fill:#F9545B;" d="M0.001,377.963c0,6.725,5.451,12.176,12.176,12.176s12.176-5.451,12.176-12.176V318.07 L0.001,330.246C0.001,330.246,0.001,377.963,0.001,377.963z"/> <path style="fill:#F9545B;" d="M69.665,377.963c0,6.725,5.451,12.176,12.176,12.176s12.176-5.451,12.176-12.176V318.07H69.665 C69.665,318.07,69.665,377.963,69.665,377.963z"/> <path style="fill:#F9545B;" d="M139.328,377.963c0,6.725,5.451,12.176,12.176,12.176s12.176-5.451,12.176-12.176V318.07h-24.352 C139.328,318.07,139.328,377.963,139.328,377.963z"/> <path style="fill:#F9545B;" d="M208.992,377.963c0,6.725,5.451,12.176,12.176,12.176c6.725,0,12.176-5.451,12.176-12.176V318.07 h-24.352V377.963z"/> <path style="fill:#F9545B;" d="M278.655,377.963c0,6.725,5.451,12.176,12.176,12.176s12.176-5.451,12.176-12.176V318.07h-24.352 V377.963z"/> <path style="fill:#F9545B;" d="M348.318,377.963c0,6.725,5.451,12.176,12.176,12.176s12.176-5.451,12.176-12.176V318.07h-24.352 V377.963z"/> <path style="fill:#F9545B;" d="M417.983,377.963c0,6.725,5.451,12.176,12.176,12.176c6.725,0,12.176-5.451,12.176-12.176V318.07 h-24.352V377.963z"/> <path style="fill:#F9545B;" d="M487.646,318.07v59.893c0,6.725,5.451,12.176,12.176,12.176c6.725,0,12.176-5.451,12.176-12.176 v-47.717L487.646,318.07z"/> <path style="fill:#F9545B;" d="M332.379,121.861c18.848,0,26.349,19.08,13.868,31.56c-22.002,22.002-28.187,29.733-28.187,43.383 L256,233.331l-62.06-36.528c0-13.649-6.185-21.381-28.187-43.383c-12.48-12.48-4.98-31.56,13.868-31.56H332.379z"/> </g> <path style="fill:#FF738E;" d="M476.164,269.895c36.771,16.973,35.834,49.507,35.834,60.356H0.002 c0-10.849-0.938-43.383,35.834-60.356c50.53-23.317,158.104-27.335,158.104-73.092H318.06 C318.06,242.56,425.634,246.578,476.164,269.895z"/> </g>
</svg>