<!DOCTYPE svg PUBLIC "-//W3C//DTD SVG 1.1//EN" "http://www.w3.org/Graphics/SVG/1.1/DTD/svg11.dtd">
<!-- Uploaded to: SVG Repo, www.svgrepo.com, Transformed by: SVG Repo Mixer Tools -->
<svg height="100px" width="100px" version="1.1" id="Layer_1" xmlns="http://www.w3.org/2000/svg" xmlns:xlink="http://www.w3.org/1999/xlink" viewBox="0 0 512 512" xml:space="preserve" fill="#000000">
<g id="SVGRepo_bgCarrier" stroke-width="0"/>
<g id="SVGRepo_tracerCarrier" stroke-linecap="round" stroke-linejoin="round"/>
<g id="SVGRepo_iconCarrier"> <g> <path style="fill:#83C7C3;" d="M390.693,121.119c0,11.401-1.748,22.416-5.02,32.868L270.811,44.694l23.677-39.661 C350.121,19.918,390.693,66.26,390.693,121.119z"/> <path style="fill:#83C7C3;" d="M121.307,121.119c0,11.401,1.748,22.416,5.02,32.868L241.189,44.694L217.513,5.033 C161.879,19.918,121.307,66.26,121.307,121.119z"/> </g> <path style="fill:#FC7576;" d="M320.762,44.694c-9.316-14.436-18.22-27.798-26.274-39.661C282.299,1.748,269.374,0,256,0 c-13.537,0-26.612,1.798-38.937,5.145c-26.162,38.662-61.215,93.159-90.786,148.68c-32.718,61.378-58.755,124.004-58.755,167.786 c0,45.78,12.812,84.773,34.566,115.319c131.006,0.013,142.829-39.827,153.908-113.562c-8.654-22.491-13.421-47.899-13.421-75.822 c0-19.231,5.02-42.078,13.424-66.866C320.842,153.92,328.013,103.233,320.762,44.694z"/> <g> <path style="fill:#FF9690;" d="M257.136,437.64c-71.042-7.39-118.771-63.563-118.771-139.777 c0-52.409,42.794-146.403,123.754-271.821L277.891,1.61C270.764,0.562,263.455,0,256,0c-2.32,0-4.62,0.072-6.911,0.176 l-7.953,12.32C156.37,143.81,113.389,239.821,113.389,297.863c0,44.944,14.23,84.546,41.15,114.523 c25.354,28.232,60.872,46.024,100.012,50.096c0.441,0.046,0.875,0.069,1.307,0.069c6.318,0,11.737-4.777,12.407-11.197 C268.979,444.493,263.996,438.353,257.136,437.64z"/> <path style="fill:#FF9690;" d="M306.84,23.432c-4.286-6.455-8.422-12.609-12.353-18.4c-1.636-0.452-3.288-0.859-4.95-1.243 c-5.65,9.331-10.77,17.779-14.013,23.111c-58.759,96.591-91.837,168.559-101.124,220.02c-1.225,6.787,3.284,13.282,10.07,14.507 c0.752,0.135,1.496,0.201,2.233,0.201c5.925,0,11.185-4.236,12.274-10.272c8.612-47.711,41.543-118.861,97.882-211.475 C299.313,35.851,302.832,30.049,306.84,23.432z"/> <path style="fill:#FF9690;" d="M255.916,400.614c-1.445,0-2.913-0.252-4.347-0.785c-40.648-15.101-69.648-51.978-77.58-98.646 c-1.156-6.798,3.419-13.247,10.219-14.403c6.802-1.155,13.248,3.419,14.403,10.219c6.42,37.771,29.469,67.46,61.656,79.419 c6.466,2.401,9.759,9.591,7.358,16.054C265.754,397.502,260.985,400.614,255.916,400.614z"/> </g> <path style="fill:#F9545B;" d="M385.673,154c-20.592-38.587-43.845-76.675-64.912-109.306 c-5.792,10.085-11.501,20.314-17.037,30.591l5.742,25.207l-19.205,0.612c-3.035,6.028-5.983,12.046-8.826,18.034l5.505,27.609 l-18.306,0.888c-4.754,11.283-9.009,22.348-12.634,33.045c8.404,24.788,13.424,47.635,13.424,66.866 c0,27.935-4.762,53.332-13.428,75.822c-25.3,65.786-83.877,106.768-153.908,113.562C136.229,484.845,192.387,512,255.775,512 c104.248,0,188.703-72.779,188.703-190.389C444.478,277.866,418.429,215.327,385.673,154z"/> <g> <path style="fill:#FC7576;" d="M290.273,101.109c16.752,27.573,30.751,52.391,42.434,75.223c2.21,4.318,6.587,6.802,11.127,6.802 c1.914,0,3.857-0.442,5.678-1.374c6.14-3.142,8.57-10.666,5.43-16.806c-13.753-26.879-30.594-56.369-51.206-89.665 C299.105,83.882,294.604,92.503,290.273,101.109z"/> <path style="fill:#FC7576;" d="M286.071,415.574c35.452-36.805,54.191-86.372,54.191-143.341 c0-46.624-31.065-102.856-56.025-148.039c-0.943-1.708-1.871-3.387-2.789-5.051c-4.559,9.598-8.864,19.125-12.811,28.493 c21.373,38.989,46.649,88.063,46.649,124.597c0,99.946-65.4,171.179-162.739,177.256c-9.468,0.589-25.337,0.266-40.87-0.328 c8.202,9.556,17.373,18.111,27.362,25.608c0.215,0,0.437,0.001,0.652,0.001c5.485,0,10.422-0.105,14.412-0.355 C205.762,471.191,252.63,450.294,286.071,415.574z"/> <path style="fill:#FC7576;" d="M275.726,484.542c-4.899,0-9.547-2.9-11.54-7.707c-2.641-6.37,0.381-13.677,6.751-16.319 c64.307-26.669,102.698-87.826,102.698-163.593c0-18.723-6.777-44.38-20.144-76.259c-2.666-6.36,0.328-13.679,6.688-16.345 c6.358-2.666,13.677,0.327,16.345,6.687c14.86,35.445,22.086,63.549,22.086,85.916c0,86.213-44.152,155.994-118.106,186.664 C278.94,484.235,277.319,484.542,275.726,484.542z"/> </g> </g>
</svg>