<!DOCTYPE svg PUBLIC "-//W3C//DTD SVG 1.1//EN" "http://www.w3.org/Graphics/SVG/1.1/DTD/svg11.dtd">
<!-- Uploaded to: SVG Repo, www.svgrepo.com, Transformed by: SVG Repo Mixer Tools -->
<svg height="100px" width="100px" version="1.1" id="Layer_1" xmlns="http://www.w3.org/2000/svg" xmlns:xlink="http://www.w3.org/1999/xlink" viewBox="0 0 512 512" xml:space="preserve" fill="#000000">
<g id="SVGRepo_bgCarrier" stroke-width="0"/>
<g id="SVGRepo_tracerCarrier" stroke-linecap="round" stroke-linejoin="round"/>
<g id="SVGRepo_iconCarrier"> <path style="fill:#FFD37D;" d="M439.204,84.929h-36.147C373.644,34.197,318.742,0,256,0S138.356,34.197,108.944,84.929H72.796 c-26.692,0-47.292,21.804-45.778,48.453l18.76,330.166C47.292,490.196,70.37,512,97.062,512h317.877 c26.692,0,49.77-21.804,51.284-48.452l18.76-330.166C486.496,106.733,465.896,84.929,439.204,84.929z"/> <path style="fill:#0E4675;" d="M75.632,133.46l18.599,327.337c0.055,0.949,1.879,2.673,2.831,2.673h317.877 c0.951,0,2.776-1.724,2.831-2.675l18.599-327.334H75.632z"/> <path style="fill:#FFFFFF;" d="M256,48.531c-67.008,0-121.327,54.321-121.327,121.327h242.654 C377.327,102.85,323.008,48.531,256,48.531z"/> <path style="fill:#F9545B;" d="M256,97.062c-6.7,0-12.133,5.433-12.133,12.133v60.663h24.265v-60.663 C268.133,102.495,262.7,97.062,256,97.062z"/> </g>
</svg>