<!DOCTYPE svg PUBLIC "-//W3C//DTD SVG 1.1//EN" "http://www.w3.org/Graphics/SVG/1.1/DTD/svg11.dtd">
<!-- Uploaded to: SVG Repo, www.svgrepo.com, Transformed by: SVG Repo Mixer Tools -->
<svg height="100px" width="100px" version="1.1" id="Layer_1" xmlns="http://www.w3.org/2000/svg" xmlns:xlink="http://www.w3.org/1999/xlink" viewBox="0 0 512.002 512.002" xml:space="preserve" fill="#000000">
<g id="SVGRepo_bgCarrier" stroke-width="0"/>
<g id="SVGRepo_tracerCarrier" stroke-linecap="round" stroke-linejoin="round"/>
<g id="SVGRepo_iconCarrier"> <path style="fill:#FC7576;" d="M173.919,299.112c-38.739,36.944-114.957,84.243-159.49,128.776 c-19.238,19.238-19.238,50.428,0,69.666s50.428,19.238,69.665,0c44.533-44.533,91.832-120.751,128.776-159.49L173.919,299.112z M60.724,474.187c-3.06,3.06-7.131,4.746-11.462,4.746c-4.33,0-8.401-1.686-11.463-4.748c-6.322-6.323-6.322-16.608,0-22.928 c3.063-3.063,7.133-4.749,11.463-4.749c4.331,0,8.402,1.686,11.465,4.749c3.06,3.059,4.748,7.131,4.748,11.463 C65.474,467.052,63.786,471.124,60.724,474.187z"/> <ellipse transform="matrix(-0.7071 -0.7071 0.7071 -0.7071 433.9326 544.3054)" style="fill:#FFE9BF;" cx="329.696" cy="182.282" rx="137.667" ry="196.704"/> <path style="fill:#FF9690;" d="M271.417,364.539c-36.17-0.001-67.16-11.879-89.628-34.345 c-28.963-28.962-40.168-71.777-31.554-120.559c8.327-47.153,34.362-94.571,73.307-133.517 C271.193,28.467,332.67,0.019,387.996,0.019c36.162,0,67.153,11.876,89.622,34.345c28.963,28.963,40.168,71.777,31.554,120.559 c-8.327,47.153-34.362,94.571-73.308,133.517C388.214,336.09,326.738,364.539,271.417,364.539z M387.996,24.961 c-48.855,0-103.741,25.717-146.816,68.793c-35.362,35.362-58.937,78.055-66.382,120.216c-7.158,40.533,1.589,75.545,24.629,98.585 c17.689,17.689,42.581,27.039,71.986,27.04c48.853,0.001,103.738-25.715,146.816-68.793c35.362-35.362,58.937-78.055,66.382-120.216 c7.158-40.534-1.589-75.545-24.629-98.585C442.291,34.312,417.399,24.961,387.996,24.961z"/> <g> <path style="fill:#FFD37D;" d="M423.687,147.27c-4.331,0-8.403,1.687-11.465,4.749c-6.319,6.32-6.319,16.605,0,22.927 c3.161,3.16,7.313,4.74,11.463,4.74c4.152,0,8.303-1.58,11.465-4.74c6.32-6.322,6.32-16.606-0.001-22.929 C432.087,148.956,428.017,147.27,423.687,147.27z"/> <path style="fill:#FFD37D;" d="M243.054,156.151c3.161,3.16,7.312,4.739,11.463,4.739s8.303-1.58,11.462-4.74 c3.063-3.062,4.75-7.133,4.75-11.465s-1.686-8.403-4.748-11.463c-3.063-3.063-7.133-4.749-11.465-4.749 c-4.33,0-8.4,1.686-11.465,4.749C236.732,139.543,236.732,149.828,243.054,156.151z"/> <path style="fill:#FFD37D;" d="M205.458,246.002c-6.319,6.32-6.319,16.605,0,22.926c3.064,3.063,7.135,4.749,11.465,4.749 c4.331,0,8.402-1.687,11.462-4.746c3.063-3.062,4.75-7.135,4.75-11.466c0-4.331-1.687-8.403-4.749-11.463 C222.067,239.681,211.782,239.682,205.458,246.002z"/> <path style="fill:#FFD37D;" d="M442.483,90.88c-4.331,0-8.402,1.687-11.465,4.749c-6.319,6.32-6.319,16.605,0,22.926 c3.063,3.063,7.133,4.749,11.465,4.749c4.331,0,8.402-1.686,11.463-4.749c6.32-6.322,6.32-16.606-0.001-22.928 C450.885,92.566,446.813,90.88,442.483,90.88z"/> <path style="fill:#FFD37D;" d="M404.89,85.71c4.331,0,8.402-1.687,11.465-4.749c6.319-6.32,6.319-16.605-0.001-22.928 c-3.063-3.062-7.133-4.748-11.463-4.748c-4.331,0-8.402,1.687-11.465,4.749c-6.319,6.32-6.319,16.605,0,22.926 C396.487,84.024,400.559,85.71,404.89,85.71z"/> <path style="fill:#FFD37D;" d="M292.111,123.304c4.33,0,8.401-1.686,11.462-4.748c3.064-3.064,4.75-7.135,4.75-11.465 c0-4.331-1.687-8.403-4.748-11.463c-3.063-3.063-7.133-4.749-11.465-4.749c-4.33,0-8.401,1.686-11.465,4.749 c-6.319,6.32-6.319,16.605,0.001,22.928C283.709,121.618,287.779,123.304,292.111,123.304z"/> <path style="fill:#FFD37D;" d="M359.965,76.832c-3.062-3.063-7.133-4.749-11.465-4.749c-4.33,0-8.401,1.686-11.465,4.749 c-6.319,6.32-6.319,16.605,0.001,22.928c3.063,3.062,7.133,4.748,11.463,4.748c4.331,0,8.403-1.687,11.465-4.749 C366.285,93.437,366.285,83.153,359.965,76.832z"/> <path style="fill:#FFD37D;" d="M367.296,241.253c-4.331,0-8.402,1.686-11.465,4.749c-6.319,6.32-6.319,16.605,0,22.926 c3.063,3.063,7.133,4.749,11.465,4.749c4.331,0,8.403-1.687,11.465-4.749s4.748-7.132,4.749-11.462 c0-4.331-1.687-8.403-4.748-11.465C375.699,242.939,371.627,241.253,367.296,241.253z"/> <path style="fill:#FFD37D;" d="M310.907,260.05c-4.33,0-8.401,1.686-11.465,4.749c-6.319,6.32-6.319,16.605,0,22.926 c3.064,3.064,7.135,4.749,11.465,4.749c4.331,0,8.403-1.687,11.465-4.749c6.32-6.322,6.32-16.608,0-22.926 C319.31,261.737,315.237,260.05,310.907,260.05z"/> <path style="fill:#FFD37D;" d="M329.703,203.661c-4.33,0-8.4,1.686-11.465,4.749c-6.32,6.32-6.32,16.605,0,22.927 c3.064,3.064,7.135,4.749,11.465,4.749c4.331,0,8.402-1.687,11.463-4.749c3.063-3.062,4.749-7.132,4.749-11.462 c0-4.332-1.687-8.404-4.748-11.463C338.105,205.347,334.035,203.661,329.703,203.661z"/> <path style="fill:#FFD37D;" d="M329.703,128.474c-4.33,0-8.4,1.686-11.465,4.749c-6.319,6.32-6.319,16.605,0.001,22.928 c3.16,3.16,7.312,4.74,11.463,4.74c4.15,0,8.302-1.58,11.462-4.74c3.063-3.062,4.75-7.133,4.75-11.465s-1.687-8.403-4.748-11.463 C338.105,130.16,334.035,128.474,329.703,128.474z"/> <path style="fill:#FFD37D;" d="M355.834,193.744c3.16,3.16,7.312,4.74,11.463,4.74c4.152,0,8.303-1.58,11.463-4.74 c6.32-6.323,6.32-16.608,0-22.927c-3.063-3.063-7.133-4.749-11.465-4.749c-4.33,0-8.401,1.686-11.465,4.749 C349.513,177.136,349.511,187.421,355.834,193.744z"/> <path style="fill:#FFD37D;" d="M251.933,201.075c0-4.331-1.687-8.403-4.748-11.463c-3.063-3.063-7.133-4.749-11.465-4.749 c-4.33,0-8.401,1.686-11.465,4.749c-6.319,6.32-6.319,16.605,0,22.926c3.064,3.063,7.135,4.749,11.465,4.749 c4.331,0,8.402-1.686,11.462-4.746C250.245,209.48,251.933,205.407,251.933,201.075z"/> <path style="fill:#FFD37D;" d="M404.89,203.659c-4.331,0-8.402,1.686-11.465,4.749c-6.32,6.322-6.319,16.606,0,22.926 c3.062,3.063,7.133,4.749,11.465,4.749c4.33,0,8.402-1.686,11.463-4.749c6.32-6.322,6.32-16.606-0.001-22.928 C413.291,205.345,409.22,203.659,404.89,203.659z"/> <path style="fill:#FFD37D;" d="M254.517,278.846c-4.33,0-8.401,1.686-11.465,4.749c-6.319,6.32-6.319,16.605,0,22.926 c3.064,3.063,7.135,4.749,11.465,4.749c4.331,0,8.402-1.687,11.462-4.748c3.063-3.063,4.75-7.133,4.75-11.465 c0-4.331-1.686-8.403-4.748-11.463C262.918,280.534,258.848,278.846,254.517,278.846z"/> <path style="fill:#FFD37D;" d="M308.323,182.28c0-4.331-1.687-8.403-4.748-11.463c-3.063-3.063-7.133-4.749-11.465-4.749 c-4.33,0-8.401,1.686-11.465,4.749c-6.32,6.322-6.319,16.606,0.001,22.927c3.063,3.063,7.135,4.749,11.465,4.749 c4.331,0,8.402-1.686,11.463-4.749C306.636,190.681,308.322,186.61,308.323,182.28z"/> <path style="fill:#FFD37D;" d="M273.313,222.457c-4.33,0-8.401,1.686-11.465,4.749c-6.32,6.32-6.32,16.605,0,22.927 c3.064,3.063,7.135,4.749,11.465,4.749c4.331,0,8.402-1.686,11.463-4.749c3.062-3.062,4.748-7.133,4.749-11.462 c0-4.332-1.687-8.404-4.748-11.463C281.716,224.143,277.644,222.457,273.313,222.457z"/> <path style="fill:#FFD37D;" d="M397.559,137.352c6.319-6.32,6.319-16.605,0-22.926c-3.062-3.063-7.133-4.749-11.465-4.749 c-4.33,0-8.401,1.686-11.465,4.749c-6.319,6.32-6.319,16.605,0.001,22.928c3.16,3.16,7.312,4.74,11.463,4.74 C390.246,142.093,394.397,140.513,397.559,137.352z"/> </g> </g>
</svg>