<!DOCTYPE svg PUBLIC "-//W3C//DTD SVG 1.1//EN" "http://www.w3.org/Graphics/SVG/1.1/DTD/svg11.dtd">
<!-- Uploaded to: SVG Repo, www.svgrepo.com, Transformed by: SVG Repo Mixer Tools -->
<svg version="1.1" id="Layer_1" xmlns="http://www.w3.org/2000/svg" xmlns:xlink="http://www.w3.org/1999/xlink" viewBox="0 0 512 512" xml:space="preserve" width="100px" height="100px" fill="#000000">
<g id="SVGRepo_bgCarrier" stroke-width="0"/>
<g id="SVGRepo_tracerCarrier" stroke-linecap="round" stroke-linejoin="round"/>
<g id="SVGRepo_iconCarrier"> <path style="fill:#3D7A94;" d="M355.605,33.5c-86.819,0-157.45,70.631-157.45,157.45v22.333h35.733V190.95 c0-67.116,54.602-121.717,121.717-121.717h112.783V33.5H355.605z"/> <rect x="177.226" y="190.95" style="fill:#0E4675;" width="77.586" height="61.417"/> <path style="fill:#3D7A94;" d="M256.222,230.033h-80.4c-56.614,13.677-102.207,55.591-121.044,110h322.49 C358.429,285.624,312.836,243.71,256.222,230.033z"/> <g> <path style="fill:#9AE1D3;" d="M122.967,512c-6.166,0-11.167-5-11.167-11.167v-44.667c0-6.166,5-11.167,11.167-11.167 c6.166,0,11.167,5,11.167,11.167v44.667C134.134,507,129.135,512,122.967,512z"/> <path style="fill:#9AE1D3;" d="M216.022,512c-6.166,0-11.167-5-11.167-11.167v-44.667c0-6.166,5-11.167,11.167-11.167 s11.167,5,11.167,11.167v44.667C227.189,507,222.19,512,216.022,512z"/> <path style="fill:#9AE1D3;" d="M309.077,512c-6.166,0-11.167-5-11.167-11.167v-44.667c0-6.166,5-11.167,11.167-11.167 c6.166,0,11.167,5,11.167,11.167v44.667C320.244,507,315.245,512,309.077,512z"/> <path style="fill:#9AE1D3;" d="M76.439,431.6c-6.166,0-11.167-5-11.167-11.167v-44.667c0-6.166,5-11.167,11.167-11.167 s11.167,5,11.167,11.167v44.667C87.606,426.6,82.606,431.6,76.439,431.6z"/> <path style="fill:#9AE1D3;" d="M169.494,431.6c-6.166,0-11.167-5-11.167-11.167v-44.667c0-6.166,5-11.167,11.167-11.167 s11.167,5,11.167,11.167v44.667C180.661,426.6,175.662,431.6,169.494,431.6z"/> <path style="fill:#9AE1D3;" d="M262.55,431.6c-6.166,0-11.167-5-11.167-11.167v-44.667c0-6.166,5-11.167,11.167-11.167 s11.167,5,11.167,11.167v44.667C273.717,426.6,268.718,431.6,262.55,431.6z"/> <path style="fill:#9AE1D3;" d="M355.605,431.6c-6.166,0-11.167-5-11.167-11.167v-44.667c0-6.166,5-11.167,11.167-11.167 s11.167,5,11.167,11.167v44.667C366.772,426.6,361.773,431.6,355.605,431.6z"/> </g> <g> <path style="fill:#0E4675;" d="M388.434,351.2H43.611c-6.166,0-11.167-5-11.167-11.167s5-11.167,11.167-11.167h344.823 c6.166,0,11.167,5,11.167,11.167S394.6,351.2,388.434,351.2z"/> <path style="fill:#0E4675;" d="M468.389,102.733c-6.166,0-11.167-5-11.167-11.167v-80.4C457.222,5,462.222,0,468.389,0 s11.167,5,11.167,11.167v80.4C479.555,97.733,474.556,102.733,468.389,102.733z"/> </g> </g>
</svg>